<svg width="40" height="40" viewBox="0 0 40 40" fill="none" xmlns="http://www.w3.org/2000/svg">
<path fill-rule="evenodd" clip-rule="evenodd" d="M23.7984 3.58634C23.1817 3.33301 22.3984 3.33301 20.8334 3.33301C19.2684 3.33301 18.4867 3.33301 17.8684 3.58634C17.0475 3.92336 16.394 4.57262 16.0517 5.39134C15.895 5.76301 15.835 6.19801 15.81 6.82967C15.7989 7.28735 15.6713 7.73462 15.4391 8.12921C15.207 8.52379 14.878 8.85265 14.4834 9.08467C14.0813 9.30818 13.6293 9.42658 13.1692 9.42891C12.7092 9.43124 12.256 9.31743 11.8517 9.09801C11.2884 8.80134 10.88 8.63801 10.4767 8.58467C9.5943 8.46881 8.70182 8.70601 7.99337 9.24467C7.46337 9.64801 7.0717 10.3213 6.29004 11.6663C5.5067 13.0113 5.1167 13.683 5.02837 14.3413C4.9117 15.218 5.1517 16.1047 5.69504 16.8063C5.9417 17.1263 6.29004 17.3947 6.82837 17.7313C7.62337 18.2263 8.13337 19.0697 8.13337 19.9997C8.13337 20.9297 7.62337 21.773 6.83004 22.2663C6.29004 22.6047 5.9417 22.873 5.69337 23.193C5.42518 23.5396 5.22832 23.9359 5.11418 24.359C5.00004 24.7821 4.97087 25.2236 5.02837 25.658C5.1167 26.3147 5.5067 26.988 6.29004 28.333C7.07337 29.678 7.46337 30.3497 7.99337 30.7547C8.70004 31.293 9.59337 31.5297 10.4767 31.4147C10.88 31.3613 11.2884 31.198 11.8517 30.9013C12.2562 30.6816 12.7097 30.5676 13.1701 30.57C13.6304 30.5723 14.0827 30.6909 14.485 30.9147C15.295 31.3813 15.775 32.2397 15.81 33.1697C15.835 33.803 15.895 34.2363 16.0517 34.608C16.3917 35.4247 17.045 36.0747 17.8684 36.413C18.485 36.6663 19.2684 36.6663 20.8334 36.6663C22.3984 36.6663 23.1817 36.6663 23.7984 36.413C24.6193 36.076 25.2727 35.4267 25.615 34.608C25.7717 34.2363 25.8317 33.803 25.8567 33.1697C25.89 32.2397 26.3717 31.3797 27.1834 30.9147C27.5855 30.6912 28.0375 30.5728 28.4975 30.5704C28.9575 30.5681 29.4107 30.6819 29.815 30.9013C30.3784 31.198 30.7867 31.3613 31.19 31.4147C32.0734 31.5313 32.9667 31.293 33.6734 30.7547C34.2034 30.3513 34.595 29.678 35.3767 28.333C36.16 26.988 36.55 26.3163 36.6384 25.658C36.6956 25.2235 36.6662 24.7819 36.5518 24.3588C36.4373 23.9357 36.2402 23.5395 35.9717 23.193C35.725 22.873 35.3767 22.6047 34.8384 22.268C34.0434 21.773 33.5334 20.9297 33.5334 19.9997C33.5334 19.0697 34.0434 18.2263 34.8367 17.733C35.3767 17.3947 35.725 17.1263 35.9734 16.8063C36.2416 16.4598 36.4384 16.0635 36.5526 15.6404C36.6667 15.2173 36.6959 14.7758 36.6384 14.3413C36.55 13.6847 36.16 13.0113 35.3767 11.6663C34.5934 10.3213 34.2034 9.64967 33.6734 9.24467C32.9649 8.70601 32.0724 8.46881 31.19 8.58467C30.7867 8.63801 30.3784 8.80134 29.815 9.09801C29.4105 9.31772 28.957 9.4317 28.4967 9.42937C28.0363 9.42704 27.584 9.30848 27.1817 9.08467C26.7874 8.85244 26.4587 8.5235 26.2269 8.12893C25.9951 7.73436 25.8676 7.28719 25.8567 6.82967C25.8317 6.19634 25.7717 5.76301 25.615 5.39134C25.4456 4.9859 25.198 4.61781 24.8863 4.3081C24.5746 3.9984 24.2049 3.75314 23.7984 3.58634ZM20.8334 24.9997C23.6167 24.9997 25.8717 22.7613 25.8717 19.9997C25.8717 17.238 23.615 14.9997 20.8334 14.9997C18.05 14.9997 15.795 17.238 15.795 19.9997C15.795 22.7613 18.0517 24.9997 20.8334 24.9997Z" fill="white"/>
</svg>
