<svg width="36" height="32" viewBox="0 0 36 32" fill="none" xmlns="http://www.w3.org/2000/svg">
<rect width="36" height="32" rx="10" fill="#54A9D9"/>
<path d="M24 22L20 18M12 14.6667C12 15.2795 12.1207 15.8863 12.3552 16.4525C12.5898 17.0187 12.9335 17.5332 13.3668 17.9665C13.8002 18.3998 14.3146 18.7436 14.8808 18.9781C15.447 19.2126 16.0538 19.3333 16.6667 19.3333C17.2795 19.3333 17.8863 19.2126 18.4525 18.9781C19.0187 18.7436 19.5332 18.3998 19.9665 17.9665C20.3998 17.5332 20.7436 17.0187 20.9781 16.4525C21.2126 15.8863 21.3333 15.2795 21.3333 14.6667C21.3333 14.0538 21.2126 13.447 20.9781 12.8808C20.7436 12.3146 20.3998 11.8002 19.9665 11.3668C19.5332 10.9335 19.0187 10.5898 18.4525 10.3552C17.8863 10.1207 17.2795 10 16.6667 10C16.0538 10 15.447 10.1207 14.8808 10.3552C14.3146 10.5898 13.8002 10.9335 13.3668 11.3668C12.9335 11.8002 12.5898 12.3146 12.3552 12.8808C12.1207 13.447 12 14.0538 12 14.6667Z" stroke="white" stroke-width="2" stroke-linecap="round" stroke-linejoin="round"/>
</svg>
