<svg width="100" height="100" viewBox="0 0 100 100" fill="none" xmlns="http://www.w3.org/2000/svg">
<path d="M62.5042 41.6663L60.4501 41.3247C60.4005 41.623 60.4164 41.9285 60.4968 42.2201C60.5772 42.5116 60.7201 42.7822 60.9155 43.0129C61.111 43.2437 61.3544 43.4291 61.6287 43.5563C61.9031 43.6836 62.2018 43.7495 62.5042 43.7497V41.6663ZM16.6709 41.6663V39.583C16.1184 39.583 15.5885 39.8025 15.1978 40.1932C14.8071 40.5839 14.5876 41.1138 14.5876 41.6663H16.6709ZM25.0043 85.4163H72.3376V81.2497H25.0043V85.4163ZM77.3376 39.583H62.5042V43.7497H77.3376V39.583ZM64.5584 42.008L67.9167 21.8622L63.8084 21.1747L60.4501 41.3247L64.5584 42.008ZM61.7542 14.583H60.8668V18.7497H61.7542V14.583ZM48.7293 21.0788L38.2459 36.7997L41.7126 39.1122L52.1917 23.3872L48.7293 21.0788ZM33.0459 39.583H16.6709V43.7497H33.0459V39.583ZM14.5876 41.6663V74.9997H18.7543V41.6663H14.5876ZM82.5543 77.0413L87.5542 52.0413L83.4709 51.2247L78.4709 76.2247L82.5543 77.0413ZM38.2459 36.7997C37.6752 37.6558 36.902 38.3578 35.9949 38.8433C35.0878 39.3288 34.0748 39.5829 33.0459 39.583V43.7497C34.7606 43.7497 36.4488 43.3264 37.9606 42.5175C39.4725 41.7085 40.7613 40.5388 41.7126 39.1122L38.2459 36.7997ZM67.9167 21.8622C68.0662 20.9669 68.0189 20.0498 67.7781 19.1747C67.5372 18.2996 67.1087 17.4874 66.5222 16.7946C65.9357 16.1019 65.2054 15.5452 64.382 15.1633C63.5586 14.7813 62.6619 14.5833 61.7542 14.583V18.7497C62.057 18.7492 62.3562 18.8147 62.6311 18.9417C62.906 19.0687 63.1498 19.254 63.3458 19.4848C63.5417 19.7157 63.685 19.9864 63.7656 20.2783C63.8462 20.5701 63.8622 20.876 63.8126 21.1747L67.9167 21.8622ZM77.3376 43.7497C78.2623 43.7496 79.1754 43.9547 80.0112 44.3502C80.8471 44.7457 81.5847 45.3218 82.171 46.0368C82.7573 46.7518 83.1776 47.5881 83.4017 48.4852C83.6258 49.3823 83.6522 50.3179 83.4709 51.2247L87.5542 52.0413C87.8562 50.5307 87.8151 48.9719 87.4421 47.4772C87.069 45.9825 86.3691 44.5892 85.3927 43.3976C84.4163 42.206 83.1878 41.2458 81.7956 40.5862C80.4034 39.9266 78.8823 39.5839 77.3418 39.583L77.3376 43.7497ZM72.3376 85.4163C74.7462 85.4168 77.0806 84.5826 78.9434 83.0556C80.8061 81.5286 82.0822 79.4033 82.5543 77.0413L78.4709 76.2247C78.1875 77.6424 77.4214 78.918 76.3031 79.8343C75.1848 80.7505 73.7833 81.2507 72.3376 81.2497V85.4163ZM60.8626 14.583C58.461 14.5826 56.0965 15.1754 53.9791 16.3086C51.8617 17.4418 50.0569 19.0804 48.7251 21.0788L52.1917 23.3872C53.1431 21.9606 54.4318 20.7909 55.9437 19.9819C57.4555 19.1729 59.1437 18.7496 60.8584 18.7497L60.8626 14.583ZM25.0043 81.2497C23.3466 81.2497 21.7569 80.5912 20.5848 79.4191C19.4127 78.247 18.7543 76.6573 18.7543 74.9997H14.5876C14.5876 76.3676 14.857 77.7222 15.3805 78.986C15.904 80.2498 16.6713 81.3981 17.6386 82.3654C18.6058 83.3326 19.7542 84.0999 21.018 84.6234C22.2818 85.1469 23.6363 85.4163 25.0043 85.4163V81.2497Z" fill="#037539"/>
<path d="M33.3376 41.666V83.3327" stroke="#4ECB71"/>
</svg>
