<svg width="30" height="30" viewBox="0 0 30 30" fill="none" xmlns="http://www.w3.org/2000/svg">
<path d="M22.5 22.5C23.0208 22.5 23.4637 22.3179 23.8288 21.9538C24.1938 21.5896 24.3758 21.1467 24.375 20.625C24.3742 20.1033 24.1921 19.6608 23.8288 19.2975C23.4654 18.9342 23.0225 18.7517 22.5 18.75C21.9775 18.7483 21.535 18.9308 21.1725 19.2975C20.81 19.6642 20.6275 20.1067 20.625 20.625C20.6225 21.1433 20.805 21.5863 21.1725 21.9538C21.54 22.3212 21.9825 22.5033 22.5 22.5ZM22.5 26.25C23.125 26.25 23.7083 26.1042 24.25 25.8125C24.7917 25.5208 25.2396 25.1146 25.5938 24.5938C25.1146 24.3021 24.6146 24.0883 24.0938 23.9525C23.5729 23.8167 23.0417 23.7492 22.5 23.75C21.9583 23.7508 21.4271 23.8183 20.9062 23.9525C20.3854 24.0867 19.8854 24.3004 19.4062 24.5938C19.7604 25.1146 20.2083 25.5208 20.75 25.8125C21.2917 26.1042 21.875 26.25 22.5 26.25ZM11.25 10H18.75V7.5C18.75 6.45833 18.3854 5.57292 17.6562 4.84375C16.9271 4.11458 16.0417 3.75 15 3.75C13.9583 3.75 13.0729 4.11458 12.3438 4.84375C11.6146 5.57292 11.25 6.45833 11.25 7.5V10ZM15.3125 27.5H7.5C6.8125 27.5 6.22417 27.2554 5.735 26.7663C5.24583 26.2771 5.00083 25.6883 5 25V12.5C5 11.8125 5.245 11.2242 5.735 10.735C6.225 10.2458 6.81333 10.0008 7.5 10H8.75V7.5C8.75 5.77083 9.35958 4.29708 10.5788 3.07875C11.7979 1.86042 13.2717 1.25083 15 1.25C16.7283 1.24917 18.2025 1.85875 19.4225 3.07875C20.6425 4.29875 21.2517 5.7725 21.25 7.5V10H22.5C23.1875 10 23.7763 10.245 24.2663 10.735C24.7563 11.225 25.0008 11.8133 25 12.5V14.125C24.625 14 24.2346 13.9063 23.8288 13.8438C23.4229 13.7813 22.98 13.75 22.5 13.75V12.5H7.5V25H14.125C14.2917 25.5 14.4583 25.9325 14.625 26.2975C14.7917 26.6625 15.0208 27.0633 15.3125 27.5ZM22.5 28.75C20.7708 28.75 19.2971 28.1404 18.0788 26.9213C16.8604 25.7021 16.2508 24.2283 16.25 22.5C16.2492 20.7717 16.8588 19.2979 18.0788 18.0788C19.2987 16.8596 20.7725 16.25 22.5 16.25C24.2275 16.25 25.7017 16.8596 26.9225 18.0788C28.1433 19.2979 28.7525 20.7717 28.75 22.5C28.7475 24.2283 28.1379 25.7025 26.9213 26.9225C25.7046 28.1425 24.2308 28.7517 22.5 28.75Z" fill="white"/>
</svg>
