<svg width="35" height="35" viewBox="0 0 35 35" fill="none" xmlns="http://www.w3.org/2000/svg">
<path d="M7.29169 20.4165V18.9582H17.5V20.4165H7.29169ZM7.29169 14.5832V13.1248H23.3334V14.5832H7.29169ZM7.29169 8.74984V7.2915H23.3334V8.74984H7.29169ZM19.2938 27.7082V24.4853L27.0725 16.7459C27.2164 16.602 27.3647 16.5048 27.5173 16.4542C27.6709 16.4037 27.824 16.3784 27.9767 16.3784C28.1439 16.3784 28.3082 16.4095 28.4696 16.4717C28.631 16.5349 28.7773 16.6292 28.9086 16.7546L30.2575 18.1313C30.3771 18.2752 30.4685 18.4249 30.5317 18.5805C30.5939 18.735 30.625 18.8901 30.625 19.0457C30.625 19.2012 30.5954 19.3578 30.5361 19.5153C30.4768 19.6728 30.3839 19.8234 30.2575 19.9673L22.5167 27.7082H19.2938ZM20.5859 26.419H21.9713L27.0273 21.3528L26.3419 20.66L25.6784 19.9484L20.5859 25.0336V26.419ZM26.3419 20.66L25.6784 19.9484L27.0273 21.3528L26.3419 20.66Z" fill="white"/>
</svg>
