<svg width="50" height="50" viewBox="0 0 50 50" fill="none" xmlns="http://www.w3.org/2000/svg">
<path d="M18.7543 45.8337C17.5043 45.8337 16.671 45.0003 16.671 43.7503V37.5003H8.33763C6.04596 37.5003 4.17096 35.6253 4.17096 33.3337V8.33366C4.17096 6.04199 6.04596 4.16699 8.33763 4.16699H41.671C43.9626 4.16699 45.8376 6.04199 45.8376 8.33366V33.3337C45.8376 35.6253 43.9626 37.5003 41.671 37.5003H28.9626L21.2543 45.2087C20.8376 45.6253 20.421 45.8337 19.796 45.8337H18.7543ZM20.8376 33.3337V39.792L27.296 33.3337H41.671V8.33366H8.33763V33.3337H20.8376ZM33.9626 12.5003L31.046 18.7503H35.421V27.0837H27.0876V18.3337L29.796 12.5003H33.9626ZM21.4626 12.5003L18.546 18.7503H22.921V27.0837H14.5876V18.3337L17.296 12.5003H21.4626Z" fill="#037539"/>
</svg>
