<svg width="40" height="40" viewBox="0 0 40 40" fill="none" xmlns="http://www.w3.org/2000/svg">
<g clip-path="url(#clip0_88_1907)">
<path d="M16.3679 33.833C18.4479 33.8349 20.5015 33.3668 22.3753 32.4638C24.2492 31.5607 25.8948 30.2458 27.1893 28.6175L27.5162 28.2063L27.0894 27.9001C24.3077 25.9044 20.5201 24.4997 16.3679 24.4997C12.2157 24.4997 8.42808 25.9044 5.64643 27.9001L5.21962 28.2063L5.54651 28.6175C6.84099 30.2458 8.48663 31.5607 10.3605 32.4638C12.2343 33.3668 14.2879 33.8349 16.3679 33.833ZM16.3679 33.833C16.3681 33.833 16.3682 33.833 16.3684 33.833L16.3679 33.333L16.3674 33.833C16.3676 33.833 16.3677 33.833 16.3679 33.833ZM0.201233 19.9997C0.201233 11.0708 7.43904 3.83301 16.3679 3.83301C25.2968 3.83301 32.5346 11.0708 32.5346 19.9997C32.5346 28.9285 25.2968 36.1663 16.3679 36.1663C7.43904 36.1663 0.201233 28.9285 0.201233 19.9997ZM10.5167 13.4093C10.1984 14.1777 10.0346 15.0013 10.0346 15.833C10.0346 17.5127 10.7018 19.1236 11.8896 20.3114C13.0773 21.4991 14.6882 22.1663 16.3679 22.1663C18.0476 22.1663 19.6585 21.4991 20.8462 20.3114C22.034 19.1236 22.7012 17.5127 22.7012 15.833C22.7012 15.0013 22.5374 14.1777 22.2191 13.4093C21.9009 12.641 21.4343 11.9428 20.8462 11.3547C20.2581 10.7666 19.56 10.3001 18.7916 9.98177C18.0232 9.66349 17.1996 9.49967 16.3679 9.49967C15.5362 9.49967 14.7126 9.66349 13.9442 9.98177C13.1758 10.3001 12.4777 10.7666 11.8896 11.3547C11.3015 11.9428 10.8349 12.641 10.5167 13.4093Z" fill="#FFD233" stroke="#564D4D"/>
</g>
<defs>
<clipPath id="clip0_88_1907">
<rect width="40" height="40" fill="white" transform="translate(0.00427246)"/>
</clipPath>
</defs>
</svg>
