<svg width="40" height="40" viewBox="0 0 40 40" fill="none" xmlns="http://www.w3.org/2000/svg">
<path d="M21.25 15C21.25 14.6685 21.1183 14.3505 20.8839 14.1161C20.6495 13.8817 20.3315 13.75 20 13.75C19.6685 13.75 19.3505 13.8817 19.1161 14.1161C18.8817 14.3505 18.75 14.6685 18.75 15V18.75H15C14.6685 18.75 14.3505 18.8817 14.1161 19.1161C13.8817 19.3505 13.75 19.6685 13.75 20C13.75 20.3315 13.8817 20.6495 14.1161 20.8839C14.3505 21.1183 14.6685 21.25 15 21.25H18.75V25C18.75 25.3315 18.8817 25.6495 19.1161 25.8839C19.3505 26.1183 19.6685 26.25 20 26.25C20.3315 26.25 20.6495 26.1183 20.8839 25.8839C21.1183 25.6495 21.25 25.3315 21.25 25V21.25H25C25.3315 21.25 25.6495 21.1183 25.8839 20.8839C26.1183 20.6495 26.25 20.3315 26.25 20C26.25 19.6685 26.1183 19.3505 25.8839 19.1161C25.6495 18.8817 25.3315 18.75 25 18.75H21.25V15Z" fill="#0FA958"/>
<path fill-rule="evenodd" clip-rule="evenodd" d="M20 2.0835C10.105 2.0835 2.08333 10.1052 2.08333 20.0002C2.08333 29.8952 10.105 37.9168 20 37.9168C29.895 37.9168 37.9167 29.8952 37.9167 20.0002C37.9167 10.1052 29.895 2.0835 20 2.0835ZM4.58333 20.0002C4.58333 15.9114 6.20758 11.9901 9.09877 9.09893C11.99 6.20775 15.9112 4.5835 20 4.5835C24.0888 4.5835 28.01 6.20775 30.9012 9.09893C33.7924 11.9901 35.4167 15.9114 35.4167 20.0002C35.4167 24.0889 33.7924 28.0102 30.9012 30.9014C28.01 33.7926 24.0888 35.4168 20 35.4168C15.9112 35.4168 11.99 33.7926 9.09877 30.9014C6.20758 28.0102 4.58333 24.0889 4.58333 20.0002Z" fill="#0FA958"/>
</svg>
