<svg width="51" height="33" viewBox="0 0 51 33" fill="none" xmlns="http://www.w3.org/2000/svg">
<path d="M50.3098 21.3293C50.3098 22.5168 47.8328 23.3084 44.943 23.7043C43.0852 20.3397 39.3698 17.7668 35.035 15.9855C35.4478 15.3918 35.8607 14.9959 36.2735 14.4022H37.9248C44.3237 14.2043 50.3098 17.9647 50.3098 21.3293ZM14.8062 14.2043H13.1549C6.756 14.2043 0.769928 17.9647 0.769928 21.3293C0.769928 22.5168 3.24692 23.3084 6.13675 23.7043C7.99449 20.3397 11.71 17.7668 16.0447 15.9855L14.8062 14.2043ZM25.5399 16.1834C30.081 16.1834 33.7965 12.6209 33.7965 8.26676C33.7965 3.9126 30.081 0.350098 25.5399 0.350098C20.9987 0.350098 17.2832 3.9126 17.2832 8.26676C17.2832 12.6209 20.9987 16.1834 25.5399 16.1834ZM25.5399 18.1626C17.0768 18.1626 9.02657 23.3084 9.02657 28.0584C9.02657 32.0168 25.5399 32.0168 25.5399 32.0168C25.5399 32.0168 42.0532 32.0168 42.0532 28.0584C42.0532 23.3084 34.0029 18.1626 25.5399 18.1626ZM37.3056 12.2251H37.9248C41.4339 12.2251 44.1173 9.65218 44.1173 6.2876C44.1173 2.92301 41.4339 0.350098 37.9248 0.350098C36.8928 0.350098 36.0671 0.548015 35.2414 0.943848C36.8928 2.92301 37.9248 5.49593 37.9248 8.26676C37.9248 9.65218 37.7184 11.0376 37.3056 12.2251ZM13.1549 12.2251H13.7741C13.3613 11.0376 13.1549 9.65218 13.1549 8.26676C13.1549 5.49593 14.187 2.92301 15.8383 0.943848C15.0126 0.548015 14.187 0.350098 13.1549 0.350098C9.64582 0.350098 6.96241 2.92301 6.96241 6.2876C6.96241 9.65218 9.64582 12.2251 13.1549 12.2251Z" fill="white"/>
</svg>
