<svg width="50" height="34" viewBox="0 0 50 34" fill="none" xmlns="http://www.w3.org/2000/svg">
<path d="M50 22.0833C50 23.3333 47.5 24.1667 44.5833 24.5833C42.7083 21.0417 38.9583 18.3333 34.5833 16.4583C35 15.8333 35.4167 15.4167 35.8333 14.7917H37.5C43.9583 14.5833 50 18.5417 50 22.0833ZM14.1667 14.5833H12.5C6.04167 14.5833 0 18.5417 0 22.0833C0 23.3333 2.5 24.1667 5.41667 24.5833C7.29167 21.0417 11.0417 18.3333 15.4167 16.4583L14.1667 14.5833ZM25 16.6667C29.5833 16.6667 33.3333 12.9167 33.3333 8.33333C33.3333 3.75 29.5833 0 25 0C20.4167 0 16.6667 3.75 16.6667 8.33333C16.6667 12.9167 20.4167 16.6667 25 16.6667ZM25 18.75C16.4583 18.75 8.33333 24.1667 8.33333 29.1667C8.33333 33.3333 25 33.3333 25 33.3333C25 33.3333 41.6667 33.3333 41.6667 29.1667C41.6667 24.1667 33.5417 18.75 25 18.75ZM36.875 12.5H37.5C41.0417 12.5 43.75 9.79167 43.75 6.25C43.75 2.70833 41.0417 0 37.5 0C36.4583 0 35.625 0.208334 34.7917 0.625C36.4583 2.70833 37.5 5.41667 37.5 8.33333C37.5 9.79167 37.2917 11.25 36.875 12.5ZM12.5 12.5H13.125C12.7083 11.25 12.5 9.79167 12.5 8.33333C12.5 5.41667 13.5417 2.70833 15.2083 0.625C14.375 0.208334 13.5417 0 12.5 0C8.95833 0 6.25 2.70833 6.25 6.25C6.25 9.79167 8.95833 12.5 12.5 12.5Z" fill="white"/>
</svg>
