<svg width="32" height="32" viewBox="0 0 32 32" fill="none" xmlns="http://www.w3.org/2000/svg">
<path d="M19.581 15.3499L8.51199 13.3999V27.8089C8.51186 27.9655 8.54264 28.1206 8.60258 28.2653C8.66251 28.41 8.75041 28.5414 8.86124 28.6521C8.97208 28.7627 9.10366 28.8504 9.24845 28.9101C9.39324 28.9698 9.54838 29.0003 9.70499 28.9999H28.805C28.9618 29.0006 29.1171 28.9702 29.2622 28.9107C29.4072 28.8511 29.539 28.7635 29.65 28.6528C29.7611 28.5421 29.8492 28.4106 29.9092 28.2658C29.9693 28.1209 30.0001 27.9657 30 27.8089V22.4999L19.581 15.3499Z" fill="#185C37"/>
<path d="M19.581 3H9.70499C9.54838 2.99961 9.39324 3.03013 9.24845 3.08982C9.10366 3.14951 8.97208 3.23719 8.86124 3.34784C8.75041 3.45848 8.66251 3.58992 8.60258 3.73461C8.54264 3.8793 8.51186 4.03439 8.51199 4.191V9.5L19.581 16L25.442 17.95L30 16V9.5L19.581 3Z" fill="#21A366"/>
<path d="M8.51199 9.5H19.581V16H8.51199V9.5Z" fill="#107C41"/>
<path opacity="0.1" d="M16.434 8.2002H8.51199V24.4502H16.434C16.7497 24.4486 17.052 24.3227 17.2755 24.0998C17.499 23.8769 17.6256 23.5749 17.628 23.2592V9.3912C17.6256 9.07553 17.499 8.77352 17.2755 8.55059C17.052 8.32765 16.7497 8.20176 16.434 8.2002Z" fill="black"/>
<path opacity="0.2" d="M15.783 8.8501H8.51199V25.1001H15.783C16.0987 25.0985 16.401 24.9726 16.6245 24.7497C16.848 24.5268 16.9746 24.2248 16.977 23.9091V10.0411C16.9746 9.72544 16.848 9.42342 16.6245 9.20049C16.401 8.97756 16.0987 8.85167 15.783 8.8501Z" fill="black"/>
<path opacity="0.2" d="M15.783 8.8501H8.51199V23.8001H15.783C16.0987 23.7985 16.401 23.6726 16.6245 23.4497C16.848 23.2268 16.9746 22.9248 16.977 22.6091V10.0411C16.9746 9.72544 16.848 9.42342 16.6245 9.20049C16.401 8.97756 16.0987 8.85167 15.783 8.8501Z" fill="black"/>
<path opacity="0.2" d="M15.132 8.8501H8.51199V23.8001H15.132C15.4477 23.7985 15.75 23.6726 15.9735 23.4497C16.197 23.2268 16.3236 22.9248 16.326 22.6091V10.0411C16.3236 9.72544 16.197 9.42342 15.9735 9.20049C15.75 8.97756 15.4477 8.85167 15.132 8.8501Z" fill="black"/>
<path d="M3.194 8.8501H15.132C15.4482 8.84984 15.7516 8.97514 15.9755 9.19846C16.1994 9.42179 16.3255 9.72487 16.326 10.0411V21.9591C16.3255 22.2753 16.1994 22.5784 15.9755 22.8017C15.7516 23.0251 15.4482 23.1504 15.132 23.1501H3.194C3.03731 23.1506 2.88205 23.1202 2.73715 23.0606C2.59224 23.0009 2.46054 22.9133 2.3496 22.8026C2.23866 22.692 2.15067 22.5605 2.09068 22.4157C2.03068 22.271 1.99987 22.1158 2 21.9591V10.0411C1.99987 9.88441 2.03068 9.72923 2.09068 9.58448C2.15067 9.43972 2.23866 9.30824 2.3496 9.19758C2.46054 9.08692 2.59224 8.99926 2.73715 8.93963C2.88205 8.88 3.03731 8.84958 3.194 8.8501Z" fill="url(#paint0_linear_53_4304)"/>
<path d="M5.70001 19.873L8.21101 15.989L5.91101 12.127H7.75801L9.01301 14.6C9.12901 14.834 9.21301 15.008 9.25101 15.124H9.26801C9.35001 14.9366 9.43668 14.7546 9.52801 14.578L10.87 12.131H12.57L10.211 15.971L12.63 19.876H10.821L9.37101 17.165C9.30388 17.0483 9.24668 16.9262 9.20001 16.8H9.17601C9.13363 16.923 9.07726 17.0408 9.00801 17.151L7.51501 19.873H5.70001Z" fill="white"/>
<path d="M28.806 3.00001H19.581V9.50001H30V4.19101C30.0001 4.03431 29.9693 3.87913 29.9093 3.73438C29.8493 3.58963 29.7613 3.45815 29.6504 3.34749C29.5395 3.23682 29.4078 3.14916 29.2628 3.08953C29.1179 3.0299 28.9627 2.99948 28.806 3.00001Z" fill="#33C481"/>
<path d="M19.581 16H30V22.5H19.581V16Z" fill="#107C41"/>
<defs>
<linearGradient id="paint0_linear_53_4304" x1="4.494" y1="7.9141" x2="13.832" y2="24.0861" gradientUnits="userSpaceOnUse">
<stop stop-color="#18884F"/>
<stop offset="0.5" stop-color="#117E43"/>
<stop offset="1" stop-color="#0B6631"/>
</linearGradient>
</defs>
</svg>
